AC-Jade.ufo
<glyph name="hyphen" format="2">
	<advance width="350"/>
	<unicode hex="002D"/>
	<outline>
		<contour>
			<point x="194" y="402" type="curve" smooth="yes"/>
			<point x="106" y="402"/>
			<point x="42" y="404"/>
			<point x="35" y="404" type="curve"/>
			<point x="35" y="290" type="line"/>
			<point x="44" y="290"/>
			<point x="103" y="292"/>
			<point x="194" y="292" type="curve" smooth="yes"/>
			<point x="263" y="292"/>
			<point x="309" y="290"/>
			<point x="315" y="290" type="curve"/>
			<point x="315" y="404" type="line"/>
			<point x="309" y="404"/>
			<point x="261" y="402"/>
		</contour>
	</outline>
</glyph>
<glyph name="C" format="2">
  <advance width="464"/>
  <unicode hex="0043"/>
  <outline>
    <contour>
      <point x="261" y="-10" type="curve"/>
      <point x="346" y="-10"/>
      <point x="388" y="1"/>
      <point x="431" y="18" type="curve"/>
      <point x="434" y="23" type="line"/>
      <point x="412" y="108" type="line"/>
      <point x="408" y="110" type="line"/>
      <point x="361" y="97"/>
      <point x="320" y="90"/>
      <point x="280" y="90" type="curve"/>
      <point x="205" y="90"/>
      <point x="172" y="170"/>
      <point x="172" y="346" type="curve" smooth="yes"/>
      <point x="172" y="518"/>
      <point x="208" y="579"/>
      <point x="272" y="579" type="curve" smooth="yes"/>
      <point x="326" y="579"/>
      <point x="359" y="572"/>
      <point x="400" y="557" type="curve"/>
      <point x="404" y="559" type="line"/>
      <point x="425" y="654" type="line"/>
      <point x="422" y="659" type="line"/>
      <point x="385" y="671"/>
      <point x="330" y="679"/>
      <point x="275" y="679" type="curve" smooth="yes"/>
      <point x="137" y="679"/>
      <point x="60" y="609"/>
      <point x="60" y="345" type="curve" smooth="yes"/>
      <point x="60" y="82"/>
      <point x="135" y="-9"/>
    </contour>
  </outline>
</glyph>
<glyph name="D" format="2">
  <advance width="520"/>
  <unicode hex="0044"/>
  <outline>
    <contour>
      <point x="65" y="0" type="line"/>
      <point x="220" y="0" type="line" smooth="yes"/>
      <point x="387" y="0"/>
      <point x="470" y="110"/>
      <point x="470" y="331" type="curve" smooth="yes"/>
      <point x="470" y="561"/>
      <point x="399" y="675"/>
      <point x="257" y="675" type="curve" smooth="yes"/>
      <point x="65" y="675" type="line"/>
      <point x="60" y="666" type="line"/>
      <point x="65" y="551"/>
      <point x="67" y="442"/>
      <point x="67" y="337" type="curve" smooth="yes"/>
      <point x="67" y="234"/>
      <point x="65" y="127"/>
      <point x="60" y="12" type="curve"/>
    </contour>
    <contour>
      <point x="323" y="576"/>
      <point x="357" y="501"/>
      <point x="357" y="331" type="curve" smooth="yes"/>
      <point x="357" y="168"/>
      <point x="319" y="96"/>
      <point x="232" y="96" type="curve" smooth="yes"/>
      <point x="133" y="96" type="line"/>
      <point x="172" y="66" type="line"/>
      <point x="172" y="114"/>
      <point x="167" y="194"/>
      <point x="167" y="339" type="curve" smooth="yes"/>
      <point x="167" y="471"/>
      <point x="169" y="553"/>
      <point x="172" y="606" type="curve"/>
      <point x="143" y="576" type="line"/>
      <point x="245" y="576" type="line" smooth="yes"/>
    </contour>
  </outline>
</glyph>
<glyph name="F" format="2">
  <advance width="427"/>
  <unicode hex="0046"/>
  <outline>
    <contour>
      <point x="184" y="-2" type="line"/>
      <point x="151" y="0"/>
      <point x="96" y="0"/>
      <point x="65" y="-2" type="curve"/>
      <point x="60" y="8" type="line"/>
      <point x="60" y="8"/>
      <point x="76" y="200"/>
      <point x="76" y="355" type="curve" smooth="yes"/>
      <point x="76" y="490"/>
      <point x="67" y="658"/>
      <point x="67" y="658" type="curve"/>
      <point x="72" y="668" type="line"/>
      <point x="118" y="669"/>
      <point x="153" y="666"/>
      <point x="246" y="666" type="curve"/>
      <point x="340" y="666"/>
      <point x="380" y="668"/>
      <point x="402" y="668" type="curve"/>
      <point x="407" y="658" type="line"/>
      <point x="407" y="572" type="line"/>
      <point x="402" y="563" type="line"/>
      <point x="402" y="563"/>
      <point x="259" y="571"/>
      <point x="151" y="571" type="curve"/>
      <point x="185" y="615" type="line"/>
      <point x="180" y="576"/>
      <point x="177" y="509"/>
      <point x="177" y="363" type="curve" smooth="yes"/>
      <point x="177" y="153"/>
      <point x="181" y="101"/>
      <point x="191" y="8" type="curve"/>
    </contour>
    <contour>
      <point x="117" y="291" type="curve"/>
      <point x="117" y="375" type="line"/>
      <point x="216" y="375"/>
      <point x="338" y="383"/>
      <point x="338" y="383" type="curve"/>
      <point x="348" y="379" type="line"/>
      <point x="348" y="287" type="line"/>
      <point x="338" y="283" type="line"/>
      <point x="338" y="283"/>
      <point x="219" y="291"/>
    </contour>
  </outline>
</glyph>
<glyph name="G" format="2">
  <advance width="512"/>
  <unicode hex="0047"/>
  <outline>
    <contour>
      <point x="171" y="335" type="curve" smooth="yes"/>
      <point x="171" y="144"/>
      <point x="218" y="89"/>
      <point x="287" y="90" type="curve"/>
      <point x="344" y="90"/>
      <point x="381" y="106"/>
      <point x="412" y="124" type="curve"/>
      <point x="351" y="43" type="line"/>
      <point x="357" y="85"/>
      <point x="365" y="122"/>
      <point x="365" y="206" type="curve"/>
      <point x="365" y="260"/>
      <point x="363" y="301"/>
      <point x="355" y="330" type="curve"/>
      <point x="381" y="281" type="line"/>
      <point x="270" y="281" type="line"/>
      <point x="265" y="286" type="line"/>
      <point x="265" y="366" type="line"/>
      <point x="270" y="371" type="line"/>
      <point x="284" y="370"/>
      <point x="318" y="369"/>
      <point x="362" y="369" type="curve" smooth="yes"/>
      <point x="402" y="369"/>
      <point x="438" y="370"/>
      <point x="457" y="371" type="curve"/>
      <point x="462" y="366" type="line"/>
      <point x="461" y="332"/>
      <point x="457" y="286"/>
      <point x="457" y="234" type="curve"/>
      <point x="457" y="134"/>
      <point x="460" y="93"/>
      <point x="462" y="53" type="curve"/>
      <point x="461" y="48" type="line"/>
      <point x="396" y="2"/>
      <point x="332" y="-10"/>
      <point x="281" y="-10" type="curve" smooth="yes"/>
      <point x="143" y="-10"/>
      <point x="60" y="64"/>
      <point x="60" y="335" type="curve" smooth="yes"/>
      <point x="60" y="606"/>
      <point x="140" y="679"/>
      <point x="281" y="679" type="curve" smooth="yes"/>
      <point x="333" y="679"/>
      <point x="389" y="668"/>
      <point x="423" y="660" type="curve"/>
      <point x="426" y="655" type="line"/>
      <point x="405" y="560" type="line"/>
      <point x="401" y="558" type="line"/>
      <point x="362" y="568"/>
      <point x="332" y="579"/>
      <point x="279" y="579" type="curve"/>
      <point x="211" y="579"/>
      <point x="171" y="525"/>
    </contour>
  </outline>
</glyph>
<glyph name="I" format="2">
  <advance width="428"/>
  <unicode hex="0049"/>
  <outline>
    <contour>
      <point x="183" y="587" type="curve"/>
      <point x="156" y="604" type="line"/>
      <point x="159" y="532"/>
      <point x="164" y="406"/>
      <point x="164" y="335" type="curve" smooth="yes"/>
      <point x="164" y="262"/>
      <point x="159" y="126"/>
      <point x="156" y="55" type="curve"/>
      <point x="272" y="55" type="line"/>
      <point x="269" y="127"/>
      <point x="264" y="264"/>
      <point x="264" y="335" type="curve" smooth="yes"/>
      <point x="264" y="404"/>
      <point x="269" y="534"/>
      <point x="272" y="607" type="curve"/>
      <point x="238" y="586" type="line"/>
      <point x="267" y="584"/>
      <point x="325" y="582"/>
      <point x="362" y="579" type="curve"/>
      <point x="378" y="594" type="line"/>
      <point x="378" y="659" type="line"/>
      <point x="365" y="672" type="line"/>
      <point x="305" y="671"/>
      <point x="259" y="670"/>
      <point x="213" y="670" type="curve" smooth="yes"/>
      <point x="168" y="670"/>
      <point x="121" y="671"/>
      <point x="59" y="672" type="curve"/>
      <point x="50" y="660" type="line"/>
      <point x="50" y="594" type="line"/>
      <point x="59" y="579" type="line"/>
      <point x="107" y="583"/>
      <point x="147" y="586"/>
    </contour>
    <contour>
      <point x="61" y="-2" type="line"/>
      <point x="122" y="-1"/>
      <point x="168" y="0"/>
      <point x="213" y="0" type="curve" smooth="yes"/>
      <point x="259" y="0"/>
      <point x="304" y="-1"/>
      <point x="364" y="-2" type="curve"/>
      <point x="376" y="11" type="line"/>
      <point x="376" y="78" type="line"/>
      <point x="361" y="93" type="line"/>
      <point x="302" y="88"/>
      <point x="257" y="86"/>
      <point x="212" y="86" type="curve" smooth="yes"/>
      <point x="167" y="86"/>
      <point x="121" y="88"/>
      <point x="60" y="93" type="curve"/>
      <point x="51" y="78" type="line"/>
      <point x="51" y="10" type="line"/>
    </contour>
  </outline>
</glyph>
<glyph name="L" format="2">
  <advance width="420"/>
  <unicode hex="004C"/>
  <outline>
    <contour>
      <point x="180" y="252" type="curve"/>
      <point x="180" y="53" type="line"/>
      <point x="144" y="99" type="line"/>
      <point x="278" y="99"/>
      <point x="385" y="107"/>
      <point x="385" y="107" type="curve"/>
      <point x="390" y="98" type="line"/>
      <point x="390" y="10" type="line"/>
      <point x="385" y="0" type="line"/>
      <point x="332" y="3"/>
      <point x="271" y="4"/>
      <point x="226" y="4" type="curve" smooth="yes"/>
      <point x="182" y="4"/>
      <point x="133" y="3"/>
      <point x="65" y="0" type="curve"/>
      <point x="60" y="10" type="line"/>
      <point x="60" y="10"/>
      <point x="70" y="190"/>
      <point x="70" y="335" type="curve" smooth="yes"/>
      <point x="70" y="472"/>
      <point x="64" y="601"/>
      <point x="60" y="660" type="curve"/>
      <point x="65" y="670" type="line"/>
      <point x="90" y="670"/>
      <point x="166" y="670"/>
      <point x="185" y="670" type="curve"/>
      <point x="190" y="660" type="line"/>
      <point x="183" y="600"/>
      <point x="180" y="467"/>
    </contour>
  </outline>
</glyph>
<glyph name="P" format="2">
  <advance width="487"/>
  <unicode hex="0050"/>
  <outline>
    <contour>
      <point x="165" y="335" type="curve"/>
      <point x="165" y="236"/>
      <point x="180" y="10"/>
      <point x="180" y="10" type="curve"/>
      <point x="175" y="0" type="line"/>
      <point x="65" y="0" type="line"/>
      <point x="60" y="10" type="line"/>
      <point x="60" y="10"/>
      <point x="70" y="233"/>
      <point x="70" y="335" type="curve"/>
      <point x="70" y="440"/>
      <point x="60" y="670"/>
      <point x="60" y="670" type="curve"/>
      <point x="65" y="680" type="line"/>
      <point x="216" y="680" type="line" smooth="yes"/>
      <point x="364" y="680"/>
      <point x="457" y="589"/>
      <point x="457" y="445" type="curve" smooth="yes"/>
      <point x="457" y="301"/>
      <point x="371" y="210"/>
      <point x="235" y="210" type="curve" smooth="yes"/>
      <point x="110" y="210" type="line"/>
      <point x="133" y="310" type="line"/>
      <point x="235" y="310" type="line" smooth="yes"/>
      <point x="314" y="310"/>
      <point x="353" y="352"/>
      <point x="353" y="438" type="curve" smooth="yes"/>
      <point x="353" y="533"/>
      <point x="308" y="580"/>
      <point x="216" y="580" type="curve" smooth="yes"/>
      <point x="116" y="580" type="line"/>
      <point x="171" y="627" type="line"/>
      <point x="168" y="538"/>
      <point x="165" y="439"/>
    </contour>
  </outline>
</glyph>
<glyph name="Q" format="2">
  <advance width="567"/>
  <unicode hex="0051"/>
  <outline>
    <contour>
      <point x="283" y="-10" type="curve" smooth="yes"/>
      <point x="439" y="-10"/>
      <point x="507" y="95"/>
      <point x="507" y="335" type="curve" smooth="yes"/>
      <point x="507" y="575"/>
      <point x="439" y="680"/>
      <point x="283" y="680" type="curve" smooth="yes"/>
      <point x="128" y="680"/>
      <point x="60" y="575"/>
      <point x="60" y="335" type="curve" smooth="yes"/>
      <point x="60" y="95"/>
      <point x="128" y="-10"/>
    </contour>
    <contour>
      <point x="283" y="90" type="curve" smooth="yes"/>
      <point x="195" y="90"/>
      <point x="171" y="143"/>
      <point x="171" y="335" type="curve" smooth="yes"/>
      <point x="171" y="527"/>
      <point x="195" y="580"/>
      <point x="283" y="580" type="curve" smooth="yes"/>
      <point x="372" y="580"/>
      <point x="396" y="527"/>
      <point x="396" y="335" type="curve" smooth="yes"/>
      <point x="396" y="143"/>
      <point x="372" y="90"/>
    </contour>
    <contour>
      <point x="334" y="-223" type="line"/>
      <point x="353" y="-227" type="line"/>
      <point x="449" y="-170" type="line"/>
      <point x="452" y="-157" type="line"/>
      <point x="306" y="27" type="line"/>
      <point x="244" y="0" type="line"/>
    </contour>
  </outline>
</glyph>
<glyph name="T" format="2">
  <advance width="448"/>
  <unicode hex="0054"/>
  <outline>
    <contour>
      <point x="169" y="458"/>
      <point x="169" y="600"/>
      <point x="169" y="600" type="curve"/>
      <point x="279" y="600" type="line"/>
      <point x="279" y="600"/>
      <point x="279" y="455"/>
      <point x="279" y="347" type="curve" smooth="yes"/>
      <point x="279" y="239"/>
      <point x="292" y="6"/>
      <point x="292" y="6" type="curve"/>
      <point x="287" y="-4" type="line"/>
      <point x="161" y="-4" type="line"/>
      <point x="156" y="6" type="line"/>
      <point x="156" y="6"/>
      <point x="169" y="238"/>
      <point x="169" y="348" type="curve" smooth="yes"/>
    </contour>
    <contour>
      <point x="225" y="570" type="curve" smooth="yes"/>
      <point x="108" y="570"/>
      <point x="30" y="559"/>
      <point x="30" y="559" type="curve"/>
      <point x="20" y="564" type="line"/>
      <point x="20" y="665" type="line"/>
      <point x="30" y="670" type="line"/>
      <point x="30" y="670"/>
      <point x="130" y="667"/>
      <point x="225" y="667" type="curve" smooth="yes"/>
      <point x="322" y="667"/>
      <point x="418" y="670"/>
      <point x="418" y="670" type="curve"/>
      <point x="428" y="665" type="line"/>
      <point x="428" y="564" type="line"/>
      <point x="418" y="559" type="line"/>
      <point x="418" y="559"/>
      <point x="342" y="570"/>
    </contour>
  </outline>
</glyph>
<glyph name="V" format="2">
  <advance width="503"/>
  <unicode hex="0056"/>
  <outline>
    <contour>
      <point x="483" y="660" type="line"/>
      <point x="463" y="576"/>
      <point x="437" y="487"/>
      <point x="408" y="348" type="curve" smooth="yes"/>
      <point x="378" y="207"/>
      <point x="351" y="96"/>
      <point x="335" y="10" type="curve"/>
      <point x="329" y="0" type="line"/>
      <point x="190" y="0" type="line"/>
      <point x="190" y="0"/>
      <point x="184" y="10"/>
      <point x="184" y="10" type="curve"/>
      <point x="184" y="10"/>
      <point x="129" y="235"/>
      <point x="101" y="350" type="curve" smooth="yes"/>
      <point x="73" y="464"/>
      <point x="20" y="660"/>
      <point x="20" y="660" type="curve"/>
      <point x="25" y="670" type="line"/>
      <point x="25" y="670"/>
      <point x="145" y="670"/>
      <point x="145" y="670" type="curve"/>
      <point x="151" y="660" type="line"/>
      <point x="151" y="660"/>
      <point x="185" y="483"/>
      <point x="206" y="385" type="curve" smooth="yes"/>
      <point x="231" y="270"/>
      <point x="286" y="53"/>
      <point x="286" y="53" type="curve"/>
      <point x="254" y="53" type="line"/>
      <point x="254" y="53"/>
      <point x="289" y="216"/>
      <point x="316" y="364" type="curve" smooth="yes"/>
      <point x="342" y="509"/>
      <point x="365" y="662"/>
      <point x="365" y="662" type="curve"/>
      <point x="372" y="670" type="line"/>
      <point x="372" y="670"/>
      <point x="477" y="670"/>
      <point x="477" y="670" type="curve"/>
    </contour>
  </outline>
</glyph>
<glyph name="c" format="2">
  <advance width="439"/>
  <unicode hex="0063"/>
  <outline>
    <contour>
      <point x="50" y="251" type="curve" smooth="yes"/>
      <point x="50" y="419"/>
      <point x="114" y="520"/>
      <point x="247" y="520" type="curve" smooth="yes"/>
      <point x="374" y="520"/>
      <point x="415" y="446"/>
      <point x="415" y="339" type="curve"/>
      <point x="413" y="337" type="line"/>
      <point x="331" y="327" type="line"/>
      <point x="329" y="329" type="line"/>
      <point x="315" y="395"/>
      <point x="299" y="430"/>
      <point x="238" y="430" type="curve"/>
      <point x="176" y="430"/>
      <point x="151" y="389"/>
      <point x="151" y="258" type="curve" smooth="yes"/>
      <point x="151" y="127"/>
      <point x="179" y="80"/>
      <point x="261" y="80" type="curve" smooth="yes"/>
      <point x="318" y="80"/>
      <point x="350" y="91"/>
      <point x="392" y="102" type="curve"/>
      <point x="395" y="101" type="line"/>
      <point x="419" y="37" type="line"/>
      <point x="418" y="34" type="line"/>
      <point x="363" y="5"/>
      <point x="313" y="-10"/>
      <point x="235" y="-10" type="curve"/>
      <point x="114" y="-10"/>
      <point x="50" y="85"/>
    </contour>
  </outline>
</glyph>
<glyph name="d" format="2">
  <advance width="527"/>
  <unicode hex="0064"/>
  <outline>
    <contour>
      <point x="325" y="679" type="line"/>
      <point x="334" y="570"/>
      <point x="335" y="490"/>
      <point x="335" y="203" type="curve" smooth="yes"/>
      <point x="335" y="130"/>
      <point x="304" y="85"/>
      <point x="246" y="85" type="curve" smooth="yes"/>
      <point x="189" y="85"/>
      <point x="150" y="130"/>
      <point x="150" y="243" type="curve" smooth="yes"/>
      <point x="150" y="280" type="line" smooth="yes"/>
      <point x="150" y="397"/>
      <point x="177" y="430"/>
      <point x="243" y="430" type="curve" smooth="yes"/>
      <point x="283" y="430"/>
      <point x="309" y="416"/>
      <point x="357" y="394" type="curve"/>
      <point x="357" y="442" type="line"/>
      <point x="321" y="442" type="line"/>
      <point x="332" y="432" type="line"/>
      <point x="322" y="477"/>
      <point x="280" y="520"/>
      <point x="217" y="520" type="curve" smooth="yes"/>
      <point x="118" y="520"/>
      <point x="45" y="465"/>
      <point x="45" y="275" type="curve" smooth="yes"/>
      <point x="45" y="237" type="line" smooth="yes"/>
      <point x="45" y="69"/>
      <point x="112" y="-10"/>
      <point x="201" y="-10" type="curve"/>
      <point x="297" y="-10"/>
      <point x="334" y="57"/>
      <point x="337" y="123" type="curve"/>
      <point x="314" y="72" type="line"/>
      <point x="367" y="72" type="line"/>
      <point x="334" y="93" type="line"/>
      <point x="334" y="57" type="line" smooth="yes"/>
      <point x="334" y="12"/>
      <point x="345" y="-9"/>
      <point x="380" y="-9" type="curve" smooth="yes"/>
      <point x="405" y="-9"/>
      <point x="456" y="-6"/>
      <point x="483" y="0" type="curve"/>
      <point x="487" y="80" type="line"/>
      <point x="384" y="100" type="line"/>
      <point x="435" y="37" type="line"/>
      <point x="435" y="322" type="line" smooth="yes"/>
      <point x="435" y="555"/>
      <point x="440" y="641"/>
      <point x="440" y="688" type="curve"/>
      <point x="440" y="727"/>
      <point x="424" y="750"/>
      <point x="379" y="750" type="curve" smooth="yes"/>
      <point x="348" y="750"/>
      <point x="311" y="740"/>
      <point x="279" y="731" type="curve"/>
      <point x="286" y="651" type="line"/>
      <point x="349" y="655" type="line"/>
    </contour>
  </outline>
</glyph>
<glyph name="g" format="2">
  <advance width="501"/>
  <unicode hex="0067"/>
  <outline>
    <contour>
      <point x="166" y="4" type="line"/>
      <point x="110" y="-10"/>
      <point x="40" y="-32"/>
      <point x="40" y="-115" type="curve" smooth="yes"/>
      <point x="40" y="-202"/>
      <point x="109" y="-250"/>
      <point x="253" y="-250" type="curve" smooth="yes"/>
      <point x="387.0" y="-250.0"/>
      <point x="466.0" y="-196.0"/>
      <point x="466" y="-98" type="curve"/>
      <point x="466.0" y="85.0"/>
      <point x="188.0" y="31.0"/>
      <point x="188" y="91" type="curve"/>
      <point x="188" y="110"/>
      <point x="195" y="122"/>
      <point x="202" y="139" type="curve"/>
      <point x="158" y="154" type="line"/>
      <point x="131" y="141"/>
      <point x="93" y="108"/>
      <point x="93" y="72" type="curve"/>
      <point x="93" y="-63"/>
      <point x="366" y="24"/>
      <point x="366" y="-92" type="curve"/>
      <point x="366" y="-140"/>
      <point x="341" y="-174"/>
      <point x="263" y="-174" type="curve" smooth="yes"/>
      <point x="172" y="-174"/>
      <point x="140" y="-151"/>
      <point x="140" y="-92" type="curve"/>
      <point x="140" y="-53"/>
      <point x="169" y="-18"/>
      <point x="236" y="-18" type="curve"/>
    </contour>
    <contour>
      <point x="246" y="118" type="curve" smooth="yes"/>
      <point x="360" y="118"/>
      <point x="437" y="178"/>
      <point x="437" y="322" type="curve" smooth="yes"/>
      <point x="437" y="460"/>
      <point x="360" y="520"/>
      <point x="246" y="520" type="curve" smooth="yes"/>
      <point x="133" y="520"/>
      <point x="53" y="460"/>
      <point x="53" y="322" type="curve" smooth="yes"/>
      <point x="53" y="186"/>
      <point x="132" y="118"/>
    </contour>
    <contour>
      <point x="246" y="208" type="curve" smooth="yes"/>
      <point x="175" y="208"/>
      <point x="153" y="239"/>
      <point x="153" y="325" type="curve" smooth="yes"/>
      <point x="153" y="401"/>
      <point x="179" y="430"/>
      <point x="246" y="430" type="curve" smooth="yes"/>
      <point x="313" y="430"/>
      <point x="337" y="401"/>
      <point x="337" y="325" type="curve" smooth="yes"/>
      <point x="337" y="239"/>
      <point x="325" y="208"/>
    </contour>
    <contour>
      <point x="466" y="533" type="line"/>
      <point x="445" y="630" type="line"/>
      <point x="337" y="630"/>
      <point x="326" y="576"/>
      <point x="346" y="503" type="curve"/>
      <point x="328" y="503" type="line"/>
      <point x="328" y="478" type="line"/>
    </contour>
  </outline>
</glyph>
<glyph name="m" format="2">
  <advance width="833"/>
  <unicode hex="006D"/>
  <guideline x="414" y="251" angle="0" identifier="hA9fwbT0CR"/>
  <outline>
    <contour>
      <point x="470" y="390" type="line"/>
      <point x="470" y="460"/>
      <point x="442" y="520"/>
      <point x="341" y="520" type="curve"/>
      <point x="264" y="520"/>
      <point x="211" y="467"/>
      <point x="188" y="395" type="curve"/>
      <point x="224" y="440" type="line"/>
      <point x="188" y="440" type="line"/>
      <point x="204" y="413" type="line"/>
      <point x="204" y="458" type="line" smooth="yes"/>
      <point x="204" y="497"/>
      <point x="188" y="520"/>
      <point x="143" y="520" type="curve"/>
      <point x="114" y="520"/>
      <point x="78" y="512"/>
      <point x="45" y="504" type="curve"/>
      <point x="52" y="421" type="line"/>
      <point x="113" y="425" type="line"/>
      <point x="94" y="472" type="line"/>
      <point x="94" y="472"/>
      <point x="104" y="415"/>
      <point x="104" y="275" type="curve" smooth="yes"/>
      <point x="104" y="77"/>
      <point x="94" y="10"/>
      <point x="94" y="10" type="curve"/>
      <point x="99" y="0" type="line"/>
      <point x="209" y="0" type="line"/>
      <point x="214" y="10" type="line"/>
      <point x="214" y="10"/>
      <point x="204" y="89"/>
      <point x="204" y="275" type="curve" smooth="yes"/>
      <point x="204" y="387"/>
      <point x="231" y="430"/>
      <point x="291" y="430" type="curve" smooth="yes"/>
      <point x="353" y="430"/>
      <point x="370" y="391"/>
      <point x="370" y="275" type="curve"/>
      <point x="370" y="146"/>
      <point x="365" y="61"/>
      <point x="365" y="6" type="curve"/>
      <point x="369" y="0" type="line"/>
      <point x="471" y="0" type="line"/>
      <point x="476" y="6" type="line"/>
      <point x="469" y="87"/>
      <point x="470" y="129"/>
      <point x="470" y="275" type="curve" smooth="yes"/>
      <point x="470" y="384"/>
      <point x="493" y="430"/>
      <point x="558" y="430" type="curve" smooth="yes"/>
      <point x="619" y="430"/>
      <point x="636" y="391"/>
      <point x="636" y="275" type="curve"/>
      <point x="636" y="196"/>
      <point x="632" y="120"/>
      <point x="632" y="65" type="curve" smooth="yes"/>
      <point x="632" y="13"/>
      <point x="663" y="-10"/>
      <point x="703" y="-10" type="curve"/>
      <point x="726" y="-10"/>
      <point x="757" y="-5"/>
      <point x="784" y="-1" type="curve"/>
      <point x="788" y="80" type="line"/>
      <point x="688" y="100" type="line"/>
      <point x="736" y="37" type="line"/>
      <point x="736" y="383" type="line" smooth="yes"/>
      <point x="736" y="467"/>
      <point x="703" y="520"/>
      <point x="604" y="520" type="curve"/>
      <point x="525" y="520"/>
      <point x="460" y="460"/>
      <point x="455" y="394" type="curve"/>
      <point x="490" y="440" type="line"/>
      <point x="454" y="440" type="line"/>
    </contour>
  </outline>
</glyph>
<glyph name="n" format="2">
  <advance width="577"/>
  <unicode hex="006E"/>
  <anchor x="-219" y="510" name="top"/>
  <outline>
    <contour>
      <point x="204" y="275" type="curve" smooth="yes"/>
      <point x="204" y="384"/>
      <point x="233" y="430"/>
      <point x="300" y="430" type="curve"/>
      <point x="362" y="430"/>
      <point x="380" y="394"/>
      <point x="380" y="275" type="curve"/>
      <point x="380" y="196"/>
      <point x="376" y="120"/>
      <point x="376" y="65" type="curve" smooth="yes"/>
      <point x="376" y="13"/>
      <point x="407" y="-10"/>
      <point x="447" y="-10" type="curve"/>
      <point x="470" y="-10"/>
      <point x="501" y="-5"/>
      <point x="528" y="-1" type="curve"/>
      <point x="532" y="80" type="line"/>
      <point x="432" y="100" type="line"/>
      <point x="480" y="37" type="line"/>
      <point x="480" y="383" type="line" smooth="yes"/>
      <point x="480" y="477"/>
      <point x="442" y="520"/>
      <point x="349" y="520" type="curve"/>
      <point x="254" y="520"/>
      <point x="203" y="447"/>
      <point x="188" y="394" type="curve"/>
      <point x="224" y="440" type="line"/>
      <point x="188" y="440" type="line"/>
      <point x="204" y="413" type="line"/>
      <point x="204" y="458" type="line" smooth="yes"/>
      <point x="204" y="499"/>
      <point x="188" y="520"/>
      <point x="143" y="520" type="curve"/>
      <point x="114" y="520"/>
      <point x="78" y="513"/>
      <point x="45" y="505" type="curve"/>
      <point x="52" y="422" type="line"/>
      <point x="113" y="425" type="line"/>
      <point x="94" y="472" type="line"/>
      <point x="94" y="472"/>
      <point x="104" y="415"/>
      <point x="104" y="275" type="curve" smooth="yes"/>
      <point x="104" y="77"/>
      <point x="94" y="10"/>
      <point x="94" y="10" type="curve"/>
      <point x="99" y="0" type="line"/>
      <point x="209" y="0" type="line"/>
      <point x="214" y="10" type="line"/>
      <point x="214" y="10"/>
      <point x="204" y="89"/>
    </contour>
  </outline>
</glyph>
<glyph name="p" format="2">
  <advance width="535"/>
  <unicode hex="0070"/>
  <outline>
    <contour>
      <point x="188" y="284" type="line"/>
      <point x="188" y="361"/>
      <point x="198" y="458"/>
      <point x="198" y="458" type="curve"/>
      <point x="198" y="497"/>
      <point x="188" y="520"/>
      <point x="143" y="520" type="curve"/>
      <point x="114" y="520"/>
      <point x="78" y="512"/>
      <point x="45" y="504" type="curve"/>
      <point x="52" y="421" type="line"/>
      <point x="113" y="425" type="line"/>
      <point x="94" y="472" type="line"/>
      <point x="94" y="472"/>
      <point x="104" y="415"/>
      <point x="107" y="164" type="curve" smooth="yes"/>
      <point x="107" y="-65"/>
      <point x="101" y="-167"/>
      <point x="97" y="-240" type="curve"/>
      <point x="102" y="-250" type="line"/>
      <point x="211" y="-250" type="line"/>
      <point x="216" y="-240" type="line"/>
      <point x="205" y="-115"/>
      <point x="199" y="-71"/>
      <point x="199" y="271" type="curve" smooth="yes"/>
      <point x="199" y="382"/>
      <point x="234" y="426"/>
      <point x="292" y="426" type="curve" smooth="yes"/>
      <point x="354" y="426"/>
      <point x="385" y="379"/>
      <point x="385" y="263" type="curve" smooth="yes"/>
      <point x="385" y="211" type="line" smooth="yes"/>
      <point x="385" y="125"/>
      <point x="352" y="80"/>
      <point x="299" y="80" type="curve"/>
      <point x="255" y="80"/>
      <point x="223" y="93"/>
      <point x="181" y="114" type="curve"/>
      <point x="171" y="66" type="line"/>
      <point x="221" y="66" type="line"/>
      <point x="196" y="101" type="line"/>
      <point x="211" y="25"/>
      <point x="253" y="-10"/>
      <point x="322" y="-10" type="curve" smooth="yes"/>
      <point x="425" y="-10"/>
      <point x="490" y="72"/>
      <point x="490" y="218" type="curve" smooth="yes"/>
      <point x="490" y="267" type="line" smooth="yes"/>
      <point x="490" y="438"/>
      <point x="434" y="520"/>
      <point x="344" y="520" type="curve" smooth="yes"/>
      <point x="252" y="520"/>
      <point x="211" y="466"/>
      <point x="188" y="374" type="curve"/>
      <point x="218" y="440" type="line"/>
      <point x="172" y="440" type="line"/>
    </contour>
  </outline>
</glyph>
<glyph name="r" format="2">
  <advance width="409"/>
  <unicode hex="0072"/>
  <outline>
    <contour>
      <point x="194" y="262" type="line"/>
      <point x="199" y="260" type="line"/>
      <point x="199.0" y="355.48344370860923"/>
      <point x="247.0" y="422.0"/>
      <point x="394" y="422" type="curve"/>
      <point x="404" y="508" type="line"/>
      <point x="390" y="514"/>
      <point x="369.23214285714283" y="520.0"/>
      <point x="345" y="520" type="curve"/>
      <point x="267" y="520.0"/>
      <point x="231.1496590503462" y="489.17565327436415"/>
      <point x="204" y="399" type="curve"/>
      <point x="194" y="399" type="line"/>
    </contour>
    <contour>
      <point x="89" y="472" type="line"/>
      <point x="89" y="472"/>
      <point x="99" y="415"/>
      <point x="99" y="275" type="curve" smooth="yes"/>
      <point x="99" y="77"/>
      <point x="89" y="10"/>
      <point x="89" y="10" type="curve"/>
      <point x="94" y="0" type="line"/>
      <point x="204" y="0" type="line"/>
      <point x="209" y="10" type="line"/>
      <point x="209.0" y="10.0"/>
      <point x="199.0" y="89.0"/>
      <point x="199" y="275" type="curve" smooth="yes"/>
      <point x="199.0" y="352.0"/>
      <point x="199.0" y="458.0"/>
      <point x="199" y="458" type="curve"/>
      <point x="199" y="497"/>
      <point x="183" y="520"/>
      <point x="138" y="520" type="curve"/>
      <point x="109" y="520"/>
      <point x="73" y="512"/>
      <point x="40" y="504" type="curve"/>
      <point x="47" y="421" type="line"/>
      <point x="108" y="425" type="line"/>
    </contour>
  </outline>
</glyph>
<glyph name="acute" format="2">
  <advance width="435"/>
  <unicode hex="00B4"/>
  <anchor x="186" y="510" name="_top"/>
  <outline>
    <contour>
      <point x="100" y="609" type="line"/>
      <point x="100" y="617" type="line"/>
      <point x="256" y="778" type="line"/>
      <point x="266" y="778" type="line"/>
      <point x="332" y="697" type="line"/>
      <point x="332" y="687" type="line"/>
      <point x="138" y="570" type="line"/>
      <point x="131" y="570" type="line"/>
    </contour>
  </outline>
</glyph>
<glyph name="N.001" format="2">
	<advance width="533"/>
	<outline>
		<contour>
			<point x="394" y="55" type="curve"/>
			<point x="409" y="82" type="line"/>
			<point x="364" y="203" type="line"/>
			<point x="176" y="670" type="line"/>
			<point x="151" y="670"/>
			<point x="82" y="670"/>
			<point x="55" y="670" type="curve"/>
			<point x="50" y="664" type="line"/>
			<point x="54" y="635"/>
			<point x="65" y="458"/>
			<point x="65" y="348" type="curve" smooth="yes"/>
			<point x="65" y="82"/>
			<point x="65" y="152"/>
			<point x="55" y="10" type="curve"/>
			<point x="60" y="0" type="line"/>
			<point x="169" y="0" type="line"/>
			<point x="174" y="10" type="line"/>
			<point x="163" y="152"/>
			<point x="162" y="86"/>
			<point x="162" y="410" type="curve" smooth="yes"/>
			<point x="162" y="447"/>
			<point x="109" y="603"/>
			<point x="107" y="629" type="curve"/>
			<point x="116" y="568" type="line"/>
			<point x="173" y="407" type="line"/>
			<point x="350" y="0" type="line"/>
			<point x="375" y="0"/>
			<point x="451" y="0"/>
			<point x="478" y="0" type="curve"/>
			<point x="483" y="6" type="line"/>
			<point x="479" y="35"/>
			<point x="468" y="212"/>
			<point x="468" y="322" type="curve" smooth="yes"/>
			<point x="468" y="588"/>
			<point x="468" y="518"/>
			<point x="478" y="660" type="curve"/>
			<point x="473" y="670" type="line"/>
			<point x="364" y="670" type="line"/>
			<point x="359" y="660" type="line"/>
			<point x="370" y="518"/>
			<point x="371" y="584"/>
			<point x="371" y="260" type="curve" smooth="yes"/>
			<point x="371" y="178"/>
			<point x="392" y="124"/>
		</contour>
	</outline>
</glyph>
<glyph name="N.003" format="2">
	<advance width="609"/>
	<outline>
		<contour>
			<point x="131" y="632" type="line"/>
			<point x="424" y="-5" type="line"/>
			<point x="430" y="-5" type="line"/>
			<point x="478" y="118" type="line"/>
			<point x="248" y="618" type="line" smooth="yes"/>
			<point x="230" y="658"/>
			<point x="217" y="680"/>
			<point x="149" y="680" type="curve"/>
			<point x="115" y="680"/>
			<point x="84" y="673"/>
			<point x="50" y="661" type="curve"/>
			<point x="59" y="576" type="line"/>
			<point x="171" y="580" type="line"/>
		</contour>
		<contour>
			<point x="426" y="-5" type="curve"/>
			<point x="514" y="5" type="line"/>
			<point x="519" y="17" type="line"/>
			<point x="519" y="85"/>
			<point x="509" y="263"/>
			<point x="509" y="352" type="curve" smooth="yes"/>
			<point x="509" y="442"/>
			<point x="519" y="660"/>
			<point x="519" y="660" type="curve"/>
			<point x="514" y="670" type="line"/>
			<point x="419" y="670" type="line"/>
			<point x="414" y="660" type="line"/>
			<point x="414" y="660"/>
			<point x="424" y="443"/>
			<point x="424" y="353" type="curve" smooth="yes"/>
			<point x="424" y="262"/>
			<point x="426" y="73"/>
		</contour>
		<contour>
			<point x="120" y="0" type="line"/>
			<point x="210" y="0" type="line"/>
			<point x="215" y="12" type="line"/>
			<point x="214" y="82"/>
			<point x="205" y="262"/>
			<point x="205" y="352" type="curve" smooth="yes"/>
			<point x="205" y="452"/>
			<point x="177" y="585"/>
			<point x="177" y="585" type="curve"/>
			<point x="110" y="585" type="line"/>
			<point x="110" y="585"/>
			<point x="120" y="420"/>
			<point x="120" y="352" type="curve" smooth="yes"/>
			<point x="120" y="262"/>
			<point x="114" y="77"/>
			<point x="115" y="11" type="curve"/>
		</contour>
	</outline>
</glyph>
<glyph name="Q.alt" format="2">
  <advance width="527"/>
  <outline>
    <contour>
      <point x="263" y="-10" type="curve" smooth="yes"/>
      <point x="419" y="-10"/>
      <point x="487" y="95"/>
      <point x="487" y="335" type="curve" smooth="yes"/>
      <point x="487" y="575"/>
      <point x="419" y="680"/>
      <point x="263" y="680" type="curve" smooth="yes"/>
      <point x="108" y="680"/>
      <point x="40" y="575"/>
      <point x="40" y="335" type="curve" smooth="yes"/>
      <point x="40" y="95"/>
      <point x="108" y="-10"/>
    </contour>
    <contour>
      <point x="263" y="90" type="curve" smooth="yes"/>
      <point x="175" y="90"/>
      <point x="151" y="143"/>
      <point x="151" y="335" type="curve" smooth="yes"/>
      <point x="151" y="527"/>
      <point x="175" y="580"/>
      <point x="263" y="580" type="curve" smooth="yes"/>
      <point x="352" y="580"/>
      <point x="376" y="527"/>
      <point x="376" y="335" type="curve" smooth="yes"/>
      <point x="376" y="143"/>
      <point x="352" y="90"/>
    </contour>
    <contour>
      <point x="284" y="-152"/>
      <point x="317" y="-188"/>
      <point x="384" y="-188" type="curve" smooth="yes"/>
      <point x="419" y="-188"/>
      <point x="449" y="-176"/>
      <point x="506" y="-140" type="curve"/>
      <point x="458" y="-64" type="line"/>
      <point x="353" y="-120" type="line"/>
      <point x="406" y="-137" type="line"/>
      <point x="363" y="-89"/>
      <point x="321" y="-15"/>
      <point x="273" y="56" type="curve"/>
      <point x="216" y="30" type="line"/>
    </contour>
  </outline>
</glyph>
<glyph name="h.001" format="2">
  <advance width="567"/>
  <outline>
    <contour>
      <point x="476" y="37" type="line"/>
      <point x="476" y="383" type="line" smooth="yes"/>
      <point x="476" y="478"/>
      <point x="440" y="520"/>
      <point x="351" y="520" type="curve" smooth="yes"/>
      <point x="283" y="520"/>
      <point x="244" y="490"/>
      <point x="205" y="440" type="curve"/>
      <point x="180" y="440" type="line"/>
      <point x="180" y="382" type="line"/>
      <point x="210" y="401"/>
      <point x="262" y="430"/>
      <point x="317" y="430" type="curve" smooth="yes"/>
      <point x="369" y="430"/>
      <point x="376" y="388"/>
      <point x="376" y="275" type="curve"/>
      <point x="376" y="196"/>
      <point x="372" y="120"/>
      <point x="372" y="65" type="curve" smooth="yes"/>
      <point x="372" y="13"/>
      <point x="400" y="-10"/>
      <point x="443" y="-10" type="curve"/>
      <point x="466" y="-10"/>
      <point x="497" y="-5"/>
      <point x="524" y="-1" type="curve"/>
      <point x="528" y="80" type="line"/>
      <point x="428" y="100" type="line"/>
    </contour>
    <contour>
      <point x="90" y="702" type="line"/>
      <point x="90" y="702"/>
      <point x="100" y="607"/>
      <point x="100" y="375" type="curve" smooth="yes"/>
      <point x="100" y="102"/>
      <point x="90" y="10"/>
      <point x="90" y="10" type="curve"/>
      <point x="95" y="0" type="line"/>
      <point x="205" y="0" type="line"/>
      <point x="210" y="10" type="line"/>
      <point x="210" y="10"/>
      <point x="200" y="119"/>
      <point x="200" y="375" type="curve" smooth="yes"/>
      <point x="200" y="507"/>
      <point x="200" y="688"/>
      <point x="200" y="688" type="curve"/>
      <point x="200" y="727"/>
      <point x="184" y="750"/>
      <point x="139" y="750" type="curve"/>
      <point x="110" y="750"/>
      <point x="74" y="742"/>
      <point x="41" y="734" type="curve"/>
      <point x="48" y="651" type="line"/>
      <point x="109" y="655" type="line"/>
    </contour>
  </outline>
</glyph>
<glyph name="i.alt" format="2">
	<advance width="300"/>
	<outline>
		<contour>
			<point x="77" y="686" type="curve"/>
			<point x="77" y="729"/>
			<point x="108" y="756"/>
			<point x="150" y="756" type="curve" smooth="yes"/>
			<point x="193" y="756"/>
			<point x="222" y="728"/>
			<point x="222" y="686" type="curve" smooth="yes"/>
			<point x="222" y="644"/>
			<point x="192" y="611"/>
			<point x="150" y="611" type="curve" smooth="yes"/>
			<point x="104" y="611"/>
			<point x="77" y="644"/>
		</contour>
		<contour>
			<point x="193" y="322"/>
			<point x="198" y="395"/>
			<point x="198" y="441" type="curve" smooth="yes"/>
			<point x="198" y="492"/>
			<point x="170" y="515"/>
			<point x="138" y="515" type="curve" smooth="yes"/>
			<point x="115" y="515"/>
			<point x="68" y="511"/>
			<point x="43" y="506" type="curve"/>
			<point x="39" y="426" type="line"/>
			<point x="134" y="406" type="line"/>
			<point x="86" y="469" type="line"/>
			<point x="90" y="442"/>
			<point x="98" y="357"/>
			<point x="98" y="260" type="curve"/>
			<point x="98" y="138"/>
			<point x="96" y="106"/>
			<point x="96" y="64" type="curve" smooth="yes"/>
			<point x="96" y="13"/>
			<point x="124" y="-10"/>
			<point x="156" y="-10" type="curve" smooth="yes"/>
			<point x="179" y="-10"/>
			<point x="223" y="-6"/>
			<point x="247" y="-1" type="curve"/>
			<point x="251" y="79" type="line"/>
			<point x="160" y="99" type="line"/>
			<point x="208" y="36" type="line"/>
			<point x="203" y="65"/>
			<point x="193" y="83"/>
			<point x="193" y="260" type="curve"/>
		</contour>
	</outline>
</glyph>
<glyph name="m.001" format="2">
  <advance width="823"/>
  <guideline x="414" y="251" angle="0" identifier="ZSs5ko5e07"/>
  <outline>
    <contour>
      <point x="732" y="37" type="line"/>
      <point x="732" y="373" type="line" smooth="yes"/>
      <point x="732" y="469"/>
      <point x="696" y="520"/>
      <point x="607" y="520" type="curve" smooth="yes"/>
      <point x="542" y="520"/>
      <point x="502" y="483"/>
      <point x="467" y="430" type="curve"/>
      <point x="442" y="430" type="line"/>
      <point x="442" y="373" type="line"/>
      <point x="471" y="394"/>
      <point x="516" y="430"/>
      <point x="569" y="430" type="curve" smooth="yes"/>
      <point x="621" y="430"/>
      <point x="632" y="380"/>
      <point x="632" y="275" type="curve"/>
      <point x="632" y="196"/>
      <point x="628" y="120"/>
      <point x="628" y="65" type="curve" smooth="yes"/>
      <point x="628" y="14"/>
      <point x="654" y="-9"/>
      <point x="680" y="-9" type="curve" smooth="yes"/>
      <point x="703" y="-9"/>
      <point x="746" y="-5"/>
      <point x="770" y="0" type="curve"/>
      <point x="774" y="80" type="line"/>
      <point x="684" y="100" type="line"/>
    </contour>
    <contour>
      <point x="466" y="275" type="curve" smooth="yes"/>
      <point x="466" y="389" type="line" smooth="yes"/>
      <point x="466" y="473"/>
      <point x="430" y="520"/>
      <point x="341" y="520" type="curve" smooth="yes"/>
      <point x="276" y="520"/>
      <point x="236" y="483"/>
      <point x="201" y="430" type="curve"/>
      <point x="176" y="430" type="line"/>
      <point x="176" y="373" type="line"/>
      <point x="205" y="394"/>
      <point x="250" y="430"/>
      <point x="303" y="430" type="curve" smooth="yes"/>
      <point x="355" y="430"/>
      <point x="366" y="380"/>
      <point x="366" y="275" type="curve"/>
      <point x="366" y="88"/>
      <point x="356" y="10"/>
      <point x="356" y="10" type="curve"/>
      <point x="361" y="0" type="line"/>
      <point x="471" y="0" type="line"/>
      <point x="476" y="10" type="line"/>
      <point x="476" y="10"/>
      <point x="466" y="85"/>
    </contour>
    <contour>
      <point x="90" y="472" type="line"/>
      <point x="90" y="472"/>
      <point x="100" y="415"/>
      <point x="100" y="275" type="curve" smooth="yes"/>
      <point x="100" y="77"/>
      <point x="90" y="10"/>
      <point x="90" y="10" type="curve"/>
      <point x="95" y="0" type="line"/>
      <point x="205" y="0" type="line"/>
      <point x="210" y="10" type="line"/>
      <point x="210" y="10"/>
      <point x="200" y="89"/>
      <point x="200" y="275" type="curve" smooth="yes"/>
      <point x="200" y="352"/>
      <point x="200" y="458"/>
      <point x="200" y="458" type="curve"/>
      <point x="200" y="497"/>
      <point x="184" y="520"/>
      <point x="139" y="520" type="curve"/>
      <point x="110" y="520"/>
      <point x="74" y="512"/>
      <point x="41" y="504" type="curve"/>
      <point x="48" y="421" type="line"/>
      <point x="109" y="425" type="line"/>
    </contour>
  </outline>
</glyph>
<glyph name="n.001" format="2">
  <advance width="567"/>
  <anchor x="276" y="510" name="top"/>
  <outline>
    <contour>
      <point x="475" y="37" type="line"/>
      <point x="475" y="383" type="line" smooth="yes"/>
      <point x="475" y="478"/>
      <point x="439" y="520"/>
      <point x="350" y="520" type="curve" smooth="yes"/>
      <point x="282" y="520"/>
      <point x="239" y="492"/>
      <point x="204" y="440" type="curve"/>
      <point x="179" y="440" type="line"/>
      <point x="179" y="383" type="line"/>
      <point x="209" y="395"/>
      <point x="261" y="430"/>
      <point x="316" y="430" type="curve" smooth="yes"/>
      <point x="368" y="430"/>
      <point x="375" y="388"/>
      <point x="375" y="275" type="curve"/>
      <point x="375" y="196"/>
      <point x="371" y="120"/>
      <point x="371" y="65" type="curve" smooth="yes"/>
      <point x="371" y="13"/>
      <point x="402" y="-10"/>
      <point x="442" y="-10" type="curve"/>
      <point x="465" y="-10"/>
      <point x="496" y="-5"/>
      <point x="523" y="-1" type="curve"/>
      <point x="527" y="80" type="line"/>
      <point x="427" y="100" type="line"/>
    </contour>
    <contour>
      <point x="89" y="472" type="line"/>
      <point x="89" y="472"/>
      <point x="99" y="415"/>
      <point x="99" y="275" type="curve" smooth="yes"/>
      <point x="99" y="77"/>
      <point x="89" y="10"/>
      <point x="89" y="10" type="curve"/>
      <point x="94" y="0" type="line"/>
      <point x="204" y="0" type="line"/>
      <point x="209" y="10" type="line"/>
      <point x="209" y="10"/>
      <point x="199" y="89"/>
      <point x="199" y="275" type="curve" smooth="yes"/>
      <point x="199" y="352"/>
      <point x="199" y="458"/>
      <point x="199" y="458" type="curve"/>
      <point x="199" y="497"/>
      <point x="183" y="520"/>
      <point x="138" y="520" type="curve"/>
      <point x="109" y="520"/>
      <point x="73" y="512"/>
      <point x="40" y="504" type="curve"/>
      <point x="47" y="421" type="line"/>
      <point x="108" y="425" type="line"/>
    </contour>
  </outline>
</glyph>
<glyph name="v.001" format="2">
	<advance width="519"/>
	<guideline x="97" y="482" angle="0" identifier="jJ8kmjo9op"/>
	<outline>
		<contour>
			<point x="1003" y="406" type="curve"/>
			<point x="963" y="262" type="line"/>
			<point x="907" y="8" type="line"/>
			<point x="901" y="-2" type="line"/>
			<point x="740" y="-2" type="line"/>
			<point x="740" y="-2"/>
			<point x="734" y="8"/>
			<point x="734" y="8" type="curve" smooth="yes"/>
			<point x="734" y="8"/>
			<point x="696" y="183"/>
			<point x="673" y="264" type="curve" smooth="yes"/>
			<point x="650" y="344"/>
			<point x="631" y="400"/>
			<point x="631" y="400" type="curve"/>
			<point x="623" y="425"/>
			<point x="613" y="433"/>
			<point x="600" y="433" type="curve"/>
			<point x="592" y="433"/>
			<point x="576" y="429"/>
			<point x="576" y="429" type="curve"/>
			<point x="567" y="506" type="line"/>
			<point x="598" y="511"/>
			<point x="624" y="515"/>
			<point x="661" y="515" type="curve" smooth="yes"/>
			<point x="706" y="515"/>
			<point x="718" y="487"/>
			<point x="727" y="448" type="curve" smooth="yes"/>
			<point x="727" y="448"/>
			<point x="750" y="354"/>
			<point x="766" y="289" type="curve" smooth="yes"/>
			<point x="787" y="206"/>
			<point x="835" y="51"/>
			<point x="835" y="51" type="curve"/>
			<point x="814" y="51" type="line"/>
			<point x="814" y="51"/>
			<point x="852" y="175"/>
			<point x="878" y="289" type="curve" smooth="yes"/>
			<point x="904" y="405"/>
			<point x="915" y="453"/>
			<point x="915" y="453" type="curve"/>
			<point x="924" y="492"/>
			<point x="935" y="521"/>
			<point x="973" y="521" type="curve" smooth="yes"/>
			<point x="1010" y="521"/>
			<point x="1036" y="517"/>
			<point x="1067" y="512" type="curve"/>
			<point x="1058" y="435" type="line"/>
			<point x="1058" y="435"/>
			<point x="1042" y="439"/>
			<point x="1034" y="439" type="curve"/>
			<point x="1021" y="439"/>
			<point x="1011" y="431"/>
		</contour>
		<contour>
			<point x="473" y="501" type="curve" smooth="yes"/>
			<point x="405" y="259" type="line"/>
			<point x="350" y="8" type="line"/>
			<point x="344" y="-2" type="line"/>
			<point x="183" y="-2" type="line"/>
			<point x="183" y="-2"/>
			<point x="177" y="8"/>
			<point x="177" y="8" type="curve" smooth="yes"/>
			<point x="177" y="8"/>
			<point x="142" y="183"/>
			<point x="116" y="264" type="curve" smooth="yes"/>
			<point x="93" y="336"/>
			<point x="33" y="501"/>
			<point x="33" y="501" type="curve" smooth="yes"/>
			<point x="33" y="501"/>
			<point x="38" y="510"/>
			<point x="38" y="510" type="curve" smooth="yes"/>
			<point x="38" y="510"/>
			<point x="151" y="510"/>
			<point x="151" y="510" type="curve" smooth="yes"/>
			<point x="151" y="510"/>
			<point x="157" y="501"/>
			<point x="157" y="501" type="curve" smooth="yes"/>
			<point x="157" y="501"/>
			<point x="191" y="356"/>
			<point x="209" y="289" type="curve" smooth="yes"/>
			<point x="231" y="206"/>
			<point x="278" y="51"/>
			<point x="278" y="51" type="curve"/>
			<point x="257" y="51" type="line"/>
			<point x="257" y="51"/>
			<point x="295" y="175"/>
			<point x="321" y="289" type="curve" smooth="yes"/>
			<point x="347" y="405"/>
			<point x="358" y="503"/>
			<point x="358" y="503" type="curve" smooth="yes"/>
			<point x="358" y="503"/>
			<point x="365" y="510"/>
			<point x="365" y="510" type="curve" smooth="yes"/>
			<point x="365" y="510"/>
			<point x="467" y="510"/>
			<point x="467" y="510" type="curve" smooth="yes"/>
			<point x="467" y="510"/>
			<point x="473" y="501"/>
		</contour>
		<contour>
			<point x="-62" y="426" type="curve" smooth="yes"/>
			<point x="-197" y="0" type="line"/>
			<point x="-327" y="0" type="line"/>
			<point x="-438" y="362" type="line" smooth="yes"/>
			<point x="-456" y="421"/>
			<point x="-460" y="433"/>
			<point x="-473" y="433" type="curve"/>
			<point x="-481" y="433"/>
			<point x="-489" y="431"/>
			<point x="-497" y="429" type="curve"/>
			<point x="-506" y="506" type="line"/>
			<point x="-475" y="511"/>
			<point x="-449" y="515"/>
			<point x="-412" y="515" type="curve" smooth="yes"/>
			<point x="-369" y="515"/>
			<point x="-356" y="488"/>
			<point x="-342" y="434" type="curve" smooth="yes"/>
			<point x="-246" y="71" type="line"/>
			<point x="-257" y="71" type="line"/>
			<point x="-179" y="362" type="line" smooth="yes"/>
			<point x="-165" y="412"/>
			<point x="-166" y="433"/>
			<point x="-183" y="433" type="curve"/>
			<point x="-191" y="433"/>
			<point x="-196" y="432"/>
			<point x="-204" y="430" type="curve"/>
			<point x="-213" y="506" type="line"/>
			<point x="-182" y="512"/>
			<point x="-158" y="515"/>
			<point x="-125" y="515" type="curve"/>
			<point x="-67" y="515"/>
			<point x="-47" y="475"/>
		</contour>
	</outline>
</glyph>
